<?xml version="1.0" ?>

<!-- Uploaded to: SVG Repo, www.svgrepo.com, Generator: SVG Repo Mixer Tools -->
<svg fill="#e67e22" width="800px" height="800px" viewBox="0 0 56 56" id="Layer_1" version="1.1" xml:space="preserve" xmlns="http://www.w3.org/2000/svg" xmlns:xlink="http://www.w3.org/1999/xlink">

<g>

<path d="M25.3,43.6c-3.9,1.1-7,0.8-9.3-0.9C11.6,39.4,11.4,32,11.4,32c0-0.5-0.5-1-1-1c0,0,0,0,0,0c-0.6,0-1,0.5-1,1   c0,0.3,0.2,8.5,5.4,12.3c1.8,1.3,3.8,2,6.3,2c1.5,0,3.1-0.2,4.8-0.7c0.5-0.2,0.8-0.7,0.7-1.2S25.8,43.5,25.3,43.6z"/>

<path d="M52,23.2c-0.2-0.4-0.5-0.6-0.9-0.6h-9.4l5.8-10.7c0.2-0.3,0.2-0.7,0-1c-0.2-0.3-0.5-0.5-0.9-0.5H33.5   c-0.4,0-0.8,0.3-0.9,0.7l-1.3,3.9c-4.4-6.5-9.3-11.7-9.3-11.8c-0.4-0.4-1.1-0.4-1.5,0C19.8,4,3.9,21.2,3.9,32.3   C3.9,43.7,11.6,53,21.2,53c3.2,0,6.3-1.1,9-3c0,0,0,0,0,0c0,0,0.1-0.1,0.1-0.1c0.1,0,0.1-0.1,0.2-0.1l0,0c0,0,0,0,0,0l0,0   c0,0,0,0,0,0c0,0,0,0,0,0l21.4-25.4C52.1,24,52.2,23.6,52,23.2z M5.9,32.3C5.9,23.3,18,9,21.2,5.5c1.6,1.8,5.7,6.6,9.2,11.9   c0,0,0,0,0,0L25.8,31c-0.1,0.3-0.1,0.6,0.1,0.9c0.2,0.3,0.5,0.4,0.8,0.4H33l-4.1,16.1c-2.3,1.7-5,2.6-7.7,2.6   C12.7,51,5.9,42.6,5.9,32.3z M31.8,45l3.5-13.5c0.1-0.3,0-0.6-0.2-0.9c-0.2-0.2-0.5-0.4-0.8-0.4h-6.2l6.1-17.9H45l-5.8,10.7   c-0.2,0.3-0.2,0.7,0,1c0.2,0.3,0.5,0.5,0.9,0.5H49L31.8,45z"/>

</g>

</svg>